<svg xmlns="http://www.w3.org/2000/svg" viewBox="0 0 844.9 1244.19"><defs><style>.cls-1{fill:#0078d7;}.cls-2{fill:#fff;}</style></defs><g id="Logo"><path class="cls-1" d="M1072.56,1177.36,1414,495.15c27-53.86-12.2-117.25-72.43-117.25H659.4c-60.2,0-99.36,63.34-72.46,117.19l340.74,682.2C957.5,1237,1042.69,1237,1072.56,1177.36Z" transform="translate(-577.8 -377.9)"/><path class="cls-1" d="M927.94,822.64,586.47,1504.85c-27,53.86,12.2,117.25,72.43,117.25h682.2c60.2,0,99.36-63.34,72.46-117.19l-340.74-682.2C1043,763,957.81,763,927.94,822.64Z" transform="translate(-577.8 -377.9)"/><path class="cls-2" d="M893.76,1069.66,689.88,1477.87c-16.14,32.3,7.35,70.29,43.46,70.29h534.32c36.11,0,59.6-38,43.46-70.29l-203.89-408.21a48.57,48.57,0,0,0-43.46-26.87H937.23A48.59,48.59,0,0,0,893.76,1069.66Z" transform="translate(-577.8 -377.9)"/></g></svg>